<svg width="274" height="46" viewBox="0 0 274 46" fill="none" xmlns="http://www.w3.org/2000/svg">
<path d="M55.0559 20.559C56.4939 20.559 57.6597 21.7247 57.6597 23.1628C57.6597 24.6008 56.4939 25.7665 55.0559 25.7665C53.6179 25.7665 52.4521 24.6008 52.4521 23.1628C52.4521 21.7247 53.6179 20.559 55.0559 20.559Z" fill="#3B3738"/>
<path d="M0 1.55556L34.25 1.77778L68.5 1.8889L137 2L205.5 1.8889L239.75 1.77778L274 1.55556L239.75 1.22222H205.5L137 1L68.5 1.22222H34.25L0 1.55556Z" fill="#3B3738"/>
<path d="M52.9402 22.1863C52.9944 21.8608 53.1571 21.5354 53.3741 21.3184C53.5911 21.1014 53.9166 20.9387 54.242 20.8302C54.893 20.6674 55.5439 20.7217 56.1406 20.9929C56.7373 21.2641 57.1713 21.7523 57.334 22.4033C57.4968 23 57.4425 23.7052 57.2255 24.3019C56.7916 25.4953 55.8152 26.5259 54.676 27.0684C53.5369 27.6108 52.1807 27.8278 50.9331 27.6108C49.6854 27.4481 48.492 26.8514 47.5699 25.9835C46.6477 25.1156 46.051 23.9222 45.7798 22.7288C45.5085 21.4811 45.617 20.1792 46.1595 19.0401C46.7019 17.9009 47.5156 16.9245 48.5463 16.1651C49.5769 15.4056 50.7703 14.8632 52.018 14.592C52.6147 14.4292 53.2656 14.375 53.9166 14.3207C54.5675 14.3207 55.1642 14.3207 55.8152 14.4292C58.3647 14.7547 60.7515 15.8939 62.9755 17.25C65.1996 18.6061 67.2609 20.2877 69.4307 21.8608C71.6005 23.4339 73.9331 24.8986 76.5369 25.7665C77.8387 26.2005 79.1949 26.4717 80.551 26.5802C81.9071 26.6887 83.2633 26.6887 84.6194 26.5802C87.3317 26.309 89.9354 25.6038 92.4307 24.5189C94.926 23.4882 97.2585 22.1863 99.5368 20.6674C101.761 19.1486 103.876 17.5212 105.938 15.8396C110.06 12.4764 114.075 8.95046 118.631 6.29244C120.909 4.93631 123.296 3.79716 125.846 2.98348C128.341 2.1698 130.999 1.73584 133.657 1.79008C130.999 1.62735 128.341 1.95282 125.737 2.71225C123.188 3.47168 120.693 4.50235 118.36 5.80424C113.695 8.40801 109.572 11.8797 105.45 15.1887C103.388 16.816 101.273 18.4434 99.0486 19.908C96.8788 21.3726 94.5463 22.6203 92.1052 23.5967C89.6642 24.5731 87.1147 25.2783 84.5652 25.4953C83.2633 25.6038 81.9614 25.6038 80.7137 25.4953C79.4118 25.3325 78.1642 25.0613 76.9166 24.6816C74.4755 23.8679 72.1972 22.5118 70.0817 20.9929C67.9119 19.474 65.8505 17.7924 63.518 16.3821C61.2397 14.9717 58.6902 13.8325 55.9779 13.4528C53.2656 13.0189 50.3364 13.7783 48.1123 15.4599C46.9732 16.2736 46.1052 17.4127 45.5085 18.7146C44.9661 20.0165 44.8576 21.4811 45.1831 22.8373C45.5085 24.1934 46.2137 25.441 47.2444 26.4174C48.2751 27.3939 49.5769 27.9906 50.9873 28.1533C52.3435 28.316 53.7538 28.099 55.0015 27.4481C56.2491 26.8514 57.2255 25.7123 57.6595 24.4104C57.8765 23.7594 57.9307 23.0542 57.6595 22.349C57.4968 21.6981 56.9543 21.1014 56.3034 20.8844C55.6524 20.6132 54.9472 20.6132 54.2963 20.7759C53.9708 20.8844 53.6996 21.0472 53.4284 21.3184C53.2114 21.5896 53.0486 21.9151 52.9944 22.2406L52.9402 22.1863Z" fill="#3B3738"/>
<path d="M79.7917 10.3066C80.6596 10.632 81.636 10.4693 82.3954 9.92686C83.2091 9.43865 83.6973 8.51648 83.9143 7.64856C84.3483 5.80422 83.5346 3.7429 82.07 2.49526C80.6596 1.19337 78.7068 0.542429 76.7539 0.759409C74.8553 0.976391 73.0652 1.84432 71.6549 3.09196C70.2445 4.3396 69.1596 5.91271 68.4544 7.59431C67.7492 9.33016 67.4237 11.1745 67.478 13.0188C67.478 16.7075 69.1053 20.342 71.8176 22.6745C70.6242 21.3184 69.702 19.7995 69.1596 18.1179C68.5629 16.4905 68.2917 14.7004 68.3459 12.9646C68.4001 11.2287 68.7256 9.4929 69.4308 7.91978C70.136 6.34667 71.1124 4.93629 72.4143 3.79714C73.6619 2.65799 75.2351 1.89856 76.9167 1.68158C78.544 1.4646 80.2799 2.00705 81.5275 3.03771C82.8294 4.06837 83.6431 5.74998 83.3718 7.43158C83.2634 8.24526 82.8836 9.05894 82.1784 9.60139C81.5275 10.1438 80.6053 10.4151 79.7374 10.1981L79.7917 10.3066Z" fill="#3B3738"/>
<path d="M108.27 13.4528C105.45 15.2971 102.954 17.6839 101.11 20.6132C100.188 22.0778 99.4826 23.6509 99.1572 25.441C98.8859 27.1769 99.1029 29.0212 99.9166 30.6486C100.351 31.4622 100.893 32.1674 101.652 32.7641C102.412 33.3066 103.226 33.7405 104.148 33.9033C105.07 34.066 105.992 34.0118 106.86 33.7405C107.294 33.5778 107.728 33.3608 108.108 33.0896C108.487 32.8184 108.813 32.4387 109.084 32.0589C109.355 31.6792 109.518 31.2453 109.627 30.8113C109.735 30.3773 109.789 29.8891 109.789 29.4552C109.789 29.0212 109.681 28.533 109.518 28.099C109.355 27.6651 109.084 27.2853 108.759 26.9599C108.108 26.3089 107.185 25.9292 106.263 26.092C105.341 26.2547 104.636 27.1226 104.799 27.9905C104.799 27.5566 104.961 27.1769 105.233 26.9056C105.504 26.6344 105.884 26.4174 106.263 26.4174C107.023 26.3632 107.836 26.7429 108.325 27.3396C109.355 28.533 109.193 30.3773 108.325 31.625C108.108 31.9504 107.836 32.1674 107.565 32.3844C107.24 32.6014 106.914 32.7641 106.589 32.8726C105.884 33.0896 105.07 33.0896 104.365 32.9269C103.605 32.7641 102.9 32.4387 102.303 31.9504C101.707 31.4622 101.218 30.8655 100.893 30.1603C100.188 28.8042 99.9709 27.1226 100.188 25.6037C100.405 24.0306 101.056 22.5118 101.869 21.0471C103.497 18.1721 105.721 15.6226 108.27 13.4528Z" fill="#3B3738"/>
<path d="M73.1738 10.9033C72.6856 12.3136 72.6856 13.941 73.1195 15.4056C73.5535 16.8703 74.3672 18.2264 75.5063 19.3655C76.6455 20.4504 78.0558 21.2099 79.5205 21.6981C80.9851 22.1863 82.5582 22.349 84.1313 22.2948C85.7044 22.2405 87.2233 21.9151 88.6879 21.3726C90.1525 20.8844 91.5629 20.1792 92.8648 19.4198C95.5228 17.8467 97.8554 15.8938 100.242 13.9953C101.436 13.0188 102.575 12.0967 103.768 11.2287L105.612 9.92685L107.511 8.67921C110.006 7.05185 112.664 5.64148 115.431 4.50233C120.964 2.22403 127.094 1.46459 133.115 1.89855C130.131 1.46459 127.039 1.41035 124.056 1.68157C121.018 2.00705 118.035 2.65799 115.16 3.7429C112.285 4.8278 109.572 6.23817 106.969 7.86553C104.365 9.49289 101.924 11.283 99.5912 13.2358C97.2587 15.1344 94.9261 17.0872 92.3766 18.6061C89.8271 20.125 87.0606 21.3184 84.1313 21.5353C82.6667 21.6438 81.2021 21.5353 79.7917 21.1556C78.3813 20.7759 77.0252 20.0707 75.9403 19.0943C74.8554 18.1179 73.9874 16.8702 73.4992 15.4599C73.011 14.0495 72.9025 12.5306 73.2823 11.066L73.1738 10.9033Z" fill="#3B3738"/>
<path d="M106.752 26.0377C108.19 26.0377 109.355 27.2034 109.355 28.6415C109.355 30.0795 108.19 31.2452 106.752 31.2452C105.314 31.2452 104.148 30.0795 104.148 28.6415C104.148 27.2034 105.314 26.0377 106.752 26.0377Z" fill="#3B3738"/>
<path d="M83.5889 7.5401C83.5889 5.96699 82.287 4.6651 80.7139 4.6651C79.1408 4.6651 77.8389 5.96699 77.8389 7.5401C77.8389 9.11321 79.1408 10.4151 80.7139 10.4151C82.287 10.4151 83.5889 9.11321 83.5889 7.5401Z" fill="#3B3738"/>
<path d="M74.3671 12.8018C74.2586 13.0731 73.9873 13.1815 73.7161 13.0731C73.4449 12.9646 73.3364 12.6933 73.4449 12.4221C73.5534 12.1509 73.8246 12.0424 74.0958 12.1509C74.3671 12.2594 74.4756 12.5306 74.3671 12.8018Z" fill="#3B3738"/>
<path d="M74.6927 14.6462C74.5843 14.9174 74.313 15.0259 74.0418 14.9174C73.7706 14.8089 73.6621 14.5377 73.7706 14.2665C73.8791 13.9952 74.1503 13.8868 74.4215 13.9952C74.6927 14.1037 74.8012 14.375 74.6927 14.6462Z" fill="#3B3738"/>
<path d="M75.452 16.3821C75.3435 16.6533 75.0723 16.7618 74.8011 16.6533C74.5299 16.5448 74.4214 16.2736 74.5299 16.0024C74.6383 15.7311 74.9096 15.6226 75.1808 15.7311C75.452 15.8396 75.5605 16.1109 75.452 16.3821Z" fill="#3B3738"/>
<path d="M76.537 17.9009C76.4285 18.1722 76.1573 18.2807 75.886 18.1722C75.6148 18.0637 75.5063 17.7925 75.6148 17.5212C75.7233 17.25 75.9945 17.1415 76.2658 17.25C76.537 17.3585 76.6455 17.6297 76.537 17.9009Z" fill="#3B3738"/>
<path d="M78.11 19.1486C78.0015 19.4198 77.7303 19.5283 77.459 19.4198C77.1878 19.3113 77.0793 19.0401 77.1878 18.7688C77.2963 18.4976 77.5675 18.3891 77.8388 18.4976C78.11 18.6061 78.2185 18.8773 78.11 19.1486Z" fill="#3B3738"/>
<path d="M79.9 19.9622C79.7915 20.2335 79.5203 20.3419 79.2491 20.2335C78.9779 20.125 78.8694 19.8537 78.9779 19.5825C79.0863 19.3113 79.3576 19.2028 79.6288 19.3113C79.9 19.4198 80.0085 19.691 79.9 19.9622Z" fill="#3B3738"/>
<path d="M67.478 22.8915C69.2139 24.6816 71.3294 26.092 73.6077 27.1769C75.886 28.2075 78.3813 28.8585 80.8766 29.0754C83.3719 29.2382 85.9214 28.967 88.3625 28.2618C90.7493 27.5566 93.0818 26.4717 95.0346 24.9528C92.9191 26.3089 90.6408 27.3396 88.254 27.9905C85.8672 28.6415 83.3719 28.8585 80.8766 28.6957C78.4356 28.533 75.9945 27.882 73.7162 26.9599C71.4379 25.9835 69.3224 24.6273 67.478 23V22.8915Z" fill="#3B3738"/>
<path d="M72.7939 28.4787C74.5298 29.4009 76.3741 30.1061 78.2727 30.4858C80.1713 30.8655 82.1784 30.974 84.1312 30.8655C86.084 30.7028 88.0369 30.3231 89.8812 29.6179C91.7255 28.9127 93.4614 27.9905 94.9803 26.7971C93.3529 27.8278 91.5628 28.6957 89.7727 29.2924C87.9284 29.8891 86.0298 30.3231 84.1312 30.4316C82.2326 30.5943 80.2798 30.4316 78.3812 30.1603C76.4826 29.8349 74.6383 29.2382 72.8482 28.4787H72.7939Z" fill="#3B3738"/>
<path d="M76.5913 31.7877C78.1102 32.3302 79.7375 32.6014 81.3649 32.7099C82.9923 32.8184 84.6196 32.7099 86.1927 32.4387C87.7658 32.1674 89.339 31.6792 90.8578 31.0825C92.3224 30.4316 93.7871 29.6179 95.0347 28.6415C93.6786 29.5094 92.214 30.2146 90.7493 30.8113C89.2305 31.408 87.7116 31.842 86.1385 32.0589C84.5654 32.3302 82.9923 32.4387 81.3649 32.3844C79.7918 32.3844 78.1644 32.1132 76.5913 31.7877Z" fill="#3B3738"/>
<path d="M110.115 4.01411C108.921 4.44807 107.728 4.99052 106.589 5.53298C105.45 6.12967 104.365 6.78062 103.28 7.43156C102.195 8.13675 101.164 8.84193 100.134 9.65561C99.1571 10.4693 98.1807 11.283 97.2585 12.2051C98.2892 11.4457 99.2656 10.632 100.296 9.92684C101.327 9.16741 102.358 8.46222 103.443 7.81128C104.527 7.10609 105.612 6.45514 106.697 5.85844C107.782 5.2075 108.921 4.6108 110.06 4.06835L110.115 4.01411Z" fill="#3B3738"/>
<path d="M105.124 4.33963C104.256 4.71934 103.442 5.15331 102.575 5.64152C101.761 6.12973 100.947 6.61793 100.188 7.16039C99.4283 7.70284 98.6689 8.29954 97.9637 8.89623C97.2585 9.49293 96.5533 10.1439 95.9023 10.8491L98.1806 9.16746C98.9401 8.62501 99.6995 8.08256 100.459 7.5401C101.218 6.99765 102.032 6.45519 102.791 5.96698L105.178 4.39388L105.124 4.33963Z" fill="#3B3738"/>
<path d="M101.327 4.17689C100.676 4.50236 100.025 4.82783 99.4286 5.20754C98.8319 5.58726 98.2352 5.96698 97.6385 6.40094C97.0418 6.8349 96.4994 7.26886 95.9569 7.75707C95.4145 8.24528 94.872 8.73349 94.3838 9.27594C94.9805 8.84198 95.5772 8.40801 96.1196 8.0283L97.8555 6.72641L99.5913 5.42452C100.188 4.99056 100.73 4.5566 101.327 4.12264V4.17689Z" fill="#3B3738"/>
<path d="M221.318 22.1863C221.318 21.8608 221.155 21.5354 220.884 21.2641C220.667 21.0472 220.341 20.8302 220.016 20.7217C219.365 20.5047 218.66 20.5589 218.009 20.8302C217.358 21.0471 216.869 21.6438 216.652 22.2948C216.435 22.9457 216.49 23.6509 216.652 24.3561C217.086 25.658 218.063 26.7429 219.31 27.3938C220.558 28.0448 221.968 28.2618 223.325 28.099C224.681 27.9363 226.037 27.3396 227.068 26.3632C228.098 25.3868 228.803 24.1391 229.129 22.783C229.454 21.4269 229.346 19.9622 228.803 18.6604C228.261 17.3585 227.339 16.2193 226.2 15.4056C223.976 13.724 221.101 13.0188 218.334 13.3986C215.568 13.724 213.072 14.9174 210.794 16.3278C208.461 17.7382 206.4 19.4198 204.23 20.9387C202.06 22.4575 199.836 23.8679 197.395 24.6273C196.148 25.0071 194.9 25.2783 193.598 25.441C192.296 25.5495 190.994 25.5495 189.747 25.441C187.143 25.1698 184.593 24.5188 182.207 23.5424C179.766 22.566 177.487 21.2641 175.263 19.8538C173.093 18.3891 170.978 16.816 168.862 15.1344C164.685 11.8797 160.617 8.408 155.952 5.74998C153.619 4.44809 151.124 3.36319 148.575 2.658C146.025 1.89856 143.313 1.57309 140.655 1.73583C143.313 1.68159 145.971 2.11555 148.466 2.92922C150.961 3.7429 153.402 4.88205 155.681 6.23818C160.237 8.95045 164.251 12.4221 168.374 15.7854C170.435 17.467 172.551 19.1486 174.775 20.6132C176.999 22.0778 179.332 23.4339 181.881 24.4646C184.376 25.4953 186.98 26.2004 189.693 26.5259C191.049 26.6887 192.405 26.6344 193.761 26.5259C195.117 26.3632 196.473 26.092 197.775 25.7122C200.379 24.8443 202.711 23.3797 204.881 21.8066C207.051 20.2335 209.112 18.6061 211.336 17.1957C213.56 15.8396 215.947 14.7004 218.497 14.375C219.148 14.2665 219.799 14.2665 220.395 14.2665C221.046 14.2665 221.643 14.375 222.294 14.5377C223.542 14.8089 224.735 15.3514 225.766 16.1108C226.796 16.8703 227.61 17.8467 228.152 18.9858C228.641 20.125 228.803 21.4269 228.532 22.6745C228.261 23.9221 227.61 25.0613 226.742 25.9292C225.82 26.7971 224.626 27.3938 223.379 27.5566C222.131 27.7193 220.775 27.5566 219.636 27.0141C218.497 26.4717 217.52 25.4953 217.086 24.2476C216.869 23.6509 216.815 23 216.978 22.349C217.141 21.6981 217.575 21.2099 218.171 20.9387C218.768 20.6674 219.419 20.6132 220.07 20.7759C220.395 20.8844 220.667 20.9929 220.938 21.2641C221.155 21.4811 221.318 21.8066 221.372 22.1321L221.318 22.1863Z" fill="#3B3738"/>
<path d="M194.466 10.3066C193.598 10.5236 192.676 10.2524 192.025 9.70991C191.374 9.16746 190.994 8.35378 190.832 7.5401C190.56 5.8585 191.374 4.17689 192.676 3.14623C193.978 2.11557 195.659 1.57312 197.287 1.7901C198.914 2.00708 200.487 2.76652 201.789 3.90567C203.091 4.99057 204.067 6.45519 204.773 8.02831C205.478 9.60142 205.803 11.3373 205.858 13.0731C205.858 14.809 205.641 16.5448 205.044 18.2264C204.501 19.908 203.579 21.4269 202.386 22.783C205.098 20.3962 206.671 16.7618 206.725 13.1274C206.725 11.283 206.454 9.43869 205.749 7.70284C205.044 5.96699 203.959 4.39388 202.549 3.20048C201.138 1.95284 199.402 1.08491 197.45 0.867929C195.551 0.705194 193.544 1.35614 192.134 2.60378C190.669 3.85142 189.855 5.85849 190.289 7.75708C190.506 8.67925 191.049 9.54717 191.808 10.0354C192.567 10.5778 193.598 10.7406 194.412 10.4151L194.466 10.3066Z" fill="#3B3738"/>
<path d="M165.987 13.4528C168.537 15.6226 170.761 18.1721 172.388 21.0471C173.202 22.4575 173.853 23.9764 174.07 25.6037C174.287 27.1769 174.07 28.8042 173.365 30.1603C173.039 30.8655 172.551 31.4622 171.954 31.9504C171.358 32.4387 170.652 32.7641 169.893 32.9269C169.134 33.0896 168.374 33.0896 167.669 32.8726C167.289 32.7641 166.964 32.6014 166.693 32.3844C166.421 32.1674 166.15 31.8962 165.933 31.625C165.065 30.4316 164.902 28.533 165.933 27.3396C166.421 26.7429 167.181 26.3632 167.994 26.4174C168.374 26.4174 168.754 26.6344 169.025 26.9056C169.296 27.1769 169.513 27.6108 169.459 27.9905C169.622 27.1226 168.917 26.2547 167.994 26.092C167.072 25.9292 166.15 26.3089 165.499 26.9599C165.174 27.2853 164.902 27.6651 164.74 28.099C164.577 28.533 164.469 28.967 164.469 29.4552C164.469 29.8891 164.469 30.3773 164.631 30.8113C164.74 31.2453 164.957 31.6792 165.174 32.0589C165.445 32.4387 165.77 32.8184 166.15 33.0896C166.53 33.3608 166.964 33.5778 167.398 33.7405C168.266 34.0118 169.242 34.066 170.11 33.9033C171.032 33.7405 171.846 33.3608 172.605 32.7641C173.31 32.1674 173.907 31.4622 174.341 30.6486C175.155 29.0212 175.372 27.1769 175.101 25.441C174.775 23.7052 174.07 22.0778 173.148 20.6132C171.303 17.7382 168.808 15.2971 165.987 13.4528Z" fill="#3B3738"/>
<path d="M201.084 10.9033C201.464 12.3679 201.355 13.941 200.867 15.2972C200.379 16.7075 199.511 17.9552 198.426 18.9316C197.341 19.908 195.985 20.559 194.575 20.9929C193.164 21.3726 191.7 21.5354 190.235 21.3726C187.306 21.1556 184.485 20.0165 181.99 18.4434C179.44 16.9245 177.108 14.9717 174.775 13.0731C172.442 11.1745 169.947 9.33018 167.398 7.70282C164.794 6.07546 162.082 4.66508 159.207 3.58018C156.332 2.49527 153.348 1.79008 150.31 1.51885C147.273 1.24763 144.235 1.30188 141.251 1.73584C147.273 1.30188 153.402 2.06131 158.935 4.33961C161.702 5.47876 164.36 6.88914 166.855 8.5165L168.754 9.76413L170.598 11.066C171.792 11.934 172.985 12.9104 174.124 13.8325C176.457 15.7311 178.843 17.6839 181.501 19.2571C182.803 20.0165 184.214 20.7217 185.678 21.2099C187.143 21.7523 188.662 22.0778 190.235 22.1321C191.808 22.1863 193.381 22.0236 194.846 21.5354C196.31 21.0472 197.721 20.2877 198.86 19.2028C199.945 18.1179 200.813 16.7618 201.247 15.2429C201.681 13.7783 201.681 12.1509 201.193 10.7406L201.084 10.9033Z" fill="#3B3738"/>
<path d="M167.506 26.0377C168.944 26.0377 170.11 27.2034 170.11 28.6415C170.11 30.0795 168.944 31.2452 167.506 31.2452C166.068 31.2452 164.902 30.0795 164.902 28.6415C164.902 27.2034 166.068 26.0377 167.506 26.0377Z" fill="#3B3738"/>
<path d="M125.629 25.9834C125.629 24.7901 126.605 23.8136 127.799 23.8136C128.992 23.8136 129.969 24.7901 129.969 25.9834C129.969 27.1768 128.992 28.1533 127.799 28.1533C126.605 28.1533 125.629 27.1768 125.629 25.9834Z" fill="#3B3738"/>
<path d="M128.178 11.8797C128.178 10.6863 129.155 9.70988 130.348 9.70988C131.542 9.70988 132.518 10.6863 132.518 11.8797C132.518 13.0731 131.542 14.0495 130.348 14.0495C129.155 14.0495 128.178 13.0731 128.178 11.8797Z" fill="#3B3738"/>
<path d="M141.577 11.8797C141.577 10.6863 142.553 9.70988 143.747 9.70988C144.94 9.70988 145.917 10.6863 145.917 11.8797C145.917 13.0731 144.94 14.0495 143.747 14.0495C142.553 14.0495 141.577 13.0731 141.577 11.8797Z" fill="#3B3738"/>
<path d="M144.072 25.9834C144.072 24.7901 145.049 23.8136 146.242 23.8136C147.435 23.8136 148.412 24.7901 148.412 25.9834C148.412 27.1768 147.435 28.1533 146.242 28.1533C145.049 28.1533 144.072 27.1768 144.072 25.9834Z" fill="#3B3738"/>
<path d="M190.669 7.5401C190.669 5.96699 191.971 4.6651 193.544 4.6651C195.117 4.6651 196.419 5.96699 196.419 7.5401C196.419 9.11321 195.117 10.4151 193.544 10.4151C191.971 10.4151 190.669 9.11321 190.669 7.5401Z" fill="#3B3738"/>
<path d="M199.891 12.8018C199.999 13.0731 200.27 13.1815 200.542 13.0731C200.813 12.9646 200.921 12.6933 200.813 12.4221C200.704 12.1509 200.433 12.0424 200.162 12.1509C199.891 12.2594 199.782 12.5306 199.891 12.8018Z" fill="#3B3738"/>
<path d="M199.565 14.6462C199.674 14.9174 199.945 15.0259 200.216 14.9174C200.487 14.8089 200.596 14.5377 200.487 14.2665C200.379 13.9952 200.108 13.8868 199.836 13.9952C199.565 14.1037 199.457 14.375 199.565 14.6462Z" fill="#3B3738"/>
<path d="M198.806 16.3821C198.914 16.6533 199.185 16.7618 199.457 16.6533C199.728 16.5448 199.836 16.2736 199.728 16.0024C199.619 15.7311 199.348 15.6226 199.077 15.7311C198.806 15.8396 198.697 16.1109 198.806 16.3821Z" fill="#3B3738"/>
<path d="M197.721 17.9009C197.829 18.1722 198.1 18.2807 198.372 18.1722C198.643 18.0637 198.751 17.7925 198.643 17.5212C198.534 17.25 198.263 17.1415 197.992 17.25C197.721 17.3585 197.612 17.6297 197.721 17.9009Z" fill="#3B3738"/>
<path d="M196.148 19.1486C196.256 19.4198 196.527 19.5283 196.799 19.4198C197.07 19.3113 197.178 19.0401 197.07 18.7688C196.961 18.4976 196.69 18.3891 196.419 18.4976C196.148 18.6061 196.039 18.8773 196.148 19.1486Z" fill="#3B3738"/>
<path d="M194.358 19.9622C194.466 20.2335 194.737 20.3419 195.009 20.2335C195.28 20.125 195.388 19.8537 195.28 19.5825C195.171 19.3113 194.9 19.2028 194.629 19.3113C194.358 19.4198 194.249 19.691 194.358 19.9622Z" fill="#3B3738"/>
<path d="M206.78 22.8915C204.936 24.5731 202.82 25.875 200.542 26.8514C198.263 27.8278 195.822 28.4245 193.381 28.5873C190.94 28.8042 188.445 28.533 186.004 27.8821C183.617 27.2311 181.285 26.2547 179.223 24.8443C181.23 26.3632 183.509 27.4481 185.896 28.1533C188.282 28.8585 190.832 29.1297 193.381 28.967C195.877 28.75 198.372 28.1533 200.65 27.0684C202.929 26.0377 205.044 24.5731 206.78 22.783V22.8915Z" fill="#3B3738"/>
<path d="M201.464 28.4787C199.674 29.2382 197.829 29.8349 195.931 30.1603C194.032 30.4858 192.079 30.5943 190.181 30.4316C188.228 30.3231 186.329 29.8891 184.539 29.2924C182.695 28.6957 180.959 27.8278 179.332 26.7971C180.905 27.9905 182.641 28.9127 184.431 29.6179C186.275 30.3231 188.228 30.7028 190.181 30.8655C192.134 30.974 194.141 30.8655 196.039 30.4858C197.938 30.1061 199.837 29.4009 201.518 28.4787H201.464Z" fill="#3B3738"/>
<path d="M197.667 31.7877C196.094 32.1674 194.521 32.3844 192.893 32.3844C191.32 32.3844 189.693 32.3844 188.12 32.0589C186.546 31.7877 184.973 31.3538 183.509 30.8113C181.99 30.2146 180.58 29.5094 179.223 28.6415C180.471 29.6179 181.881 30.4316 183.4 31.0825C184.865 31.7335 186.438 32.1674 188.065 32.4387C189.693 32.7099 191.32 32.8184 192.893 32.7099C194.521 32.6014 196.094 32.2759 197.667 31.7877Z" fill="#3B3738"/>
<path d="M164.143 4.01415C165.282 4.61085 166.421 5.20755 167.506 5.80424C168.591 6.45519 169.73 7.05188 170.761 7.75707C171.846 8.40801 172.877 9.16745 173.907 9.87264C174.938 10.6321 175.969 11.3915 176.945 12.1509C176.023 11.2288 175.101 10.4151 174.07 9.60141C173.094 8.78773 172.009 8.08254 170.924 7.37735C169.839 6.72641 168.754 6.07547 167.615 5.47877C166.476 4.88207 165.282 4.39386 164.089 3.9599L164.143 4.01415Z" fill="#3B3738"/>
<path d="M169.134 4.33961L171.52 5.91272C172.28 6.45518 173.093 6.94338 173.853 7.48583C174.612 8.02829 175.372 8.57074 176.131 9.11319L178.409 10.7948C177.759 10.0896 177.053 9.49291 176.348 8.84197C175.643 8.24527 174.884 7.64857 174.124 7.10612C173.365 6.56367 172.551 6.07546 171.737 5.58725C170.924 5.09904 170.056 4.66508 169.188 4.28537L169.134 4.33961Z" fill="#3B3738"/>
<path d="M172.931 4.1769C173.527 4.61086 174.07 5.04482 174.667 5.47878L176.402 6.78067L178.138 8.08256C178.735 8.51652 179.277 8.95048 179.874 9.3302C179.386 8.78775 178.843 8.29954 178.301 7.81133C177.758 7.32312 177.216 6.88916 176.619 6.4552C176.023 6.02124 175.426 5.64152 174.829 5.2618C174.233 4.88209 173.582 4.50237 172.931 4.23114V4.1769Z" fill="#3B3738"/>
<path d="M145.645 24.7901C145.917 24.3561 146.405 24.1934 146.893 24.2476C147.381 24.2476 147.815 24.5188 148.032 24.9528C148.52 25.7665 148.249 26.8514 147.598 27.4481C146.296 28.75 143.801 28.316 142.987 26.7429C142.553 25.9835 142.445 25.0071 142.662 24.1391C142.825 23.2712 143.367 22.5118 144.072 21.9693C144.777 21.4269 145.645 21.1014 146.568 21.0471C147.435 20.9929 148.358 21.1556 149.117 21.5896C150.69 22.4033 151.884 23.9764 152.209 25.7122C152.535 27.4481 151.938 29.3467 150.799 30.7028C149.66 32.0589 147.924 32.8726 146.134 32.9811C144.343 33.0896 142.553 32.4929 141.143 31.408C139.733 30.3231 138.648 28.75 138.214 26.9599C137.726 25.224 137.726 23.3254 137.888 21.4269C137.997 19.5283 138.214 17.5754 138.105 15.6226C137.997 13.6698 137.4 11.717 136.478 9.98111C135.99 9.11319 135.447 8.2995 134.688 7.59432C133.928 6.88913 132.952 6.40092 131.921 6.29243C130.891 6.18394 129.86 6.40093 128.938 6.88913C128.07 7.43159 127.365 8.24526 126.985 9.22167C126.605 10.1981 126.605 11.2288 126.985 12.2052C127.31 13.1816 128.124 13.941 129.101 14.2665C130.023 14.592 131.162 14.4292 131.867 13.6698C132.572 12.9646 132.843 11.8255 132.41 10.9575C132.789 11.8797 132.41 12.9104 131.759 13.5613C131.108 14.2122 130.023 14.3207 129.209 13.9953C128.341 13.6698 127.69 12.9646 127.419 12.0967C127.148 11.2288 127.202 10.2523 127.527 9.43866C127.853 8.62498 128.504 7.91979 129.263 7.48583C130.023 7.05186 130.945 6.88913 131.813 6.99762C132.681 7.10611 133.494 7.59432 134.145 8.19102C134.796 8.78772 135.285 9.6014 135.718 10.4151C136.586 12.0424 137.075 13.8868 137.183 15.7311C137.292 17.5754 137.075 19.474 136.912 21.4269C136.749 23.3254 136.695 25.3325 137.237 27.2854C137.726 29.2382 138.919 31.0283 140.492 32.2759C142.065 33.5236 144.181 34.1745 146.242 34.066C148.249 33.9575 150.31 33.0354 151.612 31.408C152.914 29.8349 153.565 27.7193 153.185 25.658C152.806 23.5967 151.395 21.8608 149.551 20.9929C147.707 20.0707 145.32 20.2877 143.747 21.5896C142.065 22.8372 141.523 25.3868 142.662 27.1226C143.747 28.967 146.568 29.2924 147.924 27.7736C148.249 27.3938 148.466 26.9056 148.575 26.4174C148.629 25.9292 148.575 25.3868 148.303 24.9528C148.032 24.5188 147.544 24.3019 147.056 24.2476C146.568 24.2476 146.025 24.4104 145.808 24.8443L145.645 24.7901Z" fill="#3B3738"/>
<path d="M128.504 24.79C128.287 24.3561 127.744 24.1391 127.256 24.1933C126.768 24.1933 126.28 24.4646 126.009 24.8985C125.737 25.3325 125.629 25.8749 125.737 26.3632C125.792 26.8514 126.009 27.3396 126.388 27.7193C127.799 29.2382 130.619 28.9127 131.65 27.0683C132.735 25.2783 132.247 22.783 130.565 21.5353C128.938 20.2334 126.605 20.0165 124.761 20.9386C122.917 21.8066 121.452 23.5966 121.126 25.6037C120.747 27.665 121.398 29.7806 122.7 31.3537C124.001 32.9811 126.009 33.9032 128.07 34.0117C130.131 34.1745 132.193 33.5235 133.82 32.2216C135.393 30.974 136.586 29.1839 137.075 27.2311C137.617 25.2783 137.563 23.2712 137.4 21.3726C137.237 19.474 137.02 17.5754 137.129 15.6768C137.237 13.8325 137.726 11.9882 138.593 10.3608C139.027 9.54712 139.516 8.78768 140.167 8.13674C140.818 7.54004 141.631 7.05184 142.499 6.94334C143.367 6.83485 144.289 6.94335 145.049 7.43156C145.808 7.86552 146.459 8.5707 146.784 9.38438C147.164 10.1981 147.218 11.1745 146.893 12.0424C146.622 12.9103 145.971 13.6155 145.103 13.941C144.235 14.2665 143.204 14.158 142.553 13.507C141.902 12.9103 141.523 11.8254 141.902 10.9033C141.468 11.7712 141.74 12.9103 142.445 13.6155C143.15 14.375 144.289 14.5377 145.211 14.2122C146.188 13.941 146.947 13.1273 147.327 12.1509C147.707 11.2287 147.652 10.1438 147.327 9.1674C146.947 8.19099 146.296 7.37731 145.374 6.83486C144.506 6.2924 143.421 6.07542 142.391 6.23816C141.36 6.34665 140.384 6.8891 139.624 7.54005C138.865 8.24524 138.268 9.05891 137.834 9.92684C136.858 11.6627 136.315 13.6155 136.207 15.5683C136.098 17.5212 136.315 19.474 136.424 21.3726C136.532 23.2712 136.586 25.1698 136.098 26.9056C135.61 28.6415 134.579 30.2146 133.169 31.3537C131.759 32.4929 129.968 33.0353 128.178 32.9268C126.388 32.8183 124.652 32.0589 123.513 30.6485C122.374 29.2924 121.777 27.4481 122.103 25.658C122.374 23.9221 123.622 22.349 125.195 21.5353C126.009 21.1556 126.876 20.9386 127.744 20.9929C128.612 21.0471 129.48 21.3726 130.24 21.915C130.945 22.4575 131.487 23.2169 131.65 24.0849C131.867 24.9528 131.759 25.8749 131.325 26.6886C130.511 28.2617 128.016 28.6957 126.714 27.3938C126.063 26.7971 125.792 25.7122 126.28 24.8985C126.497 24.5188 126.931 24.2476 127.419 24.1933C127.853 24.1933 128.395 24.3018 128.667 24.7358L128.504 24.79Z" fill="#3B3738"/>
<path d="M140.438 41.5519C139.841 42.9623 138.105 44.9693 137.02 46C135.935 44.9151 134.2 42.908 133.603 41.5519C133.006 40.1415 132.952 38.3514 133.983 37.2123C134.471 36.6698 135.122 36.3443 135.664 35.9104C136.261 35.4764 136.912 34.934 137.02 34.2288C137.129 34.934 137.78 35.4764 138.376 35.9104C138.973 36.3443 139.624 36.6698 140.058 37.2123C141.089 38.3514 141.089 40.1415 140.438 41.5519Z" fill="#3B3738"/>
<path d="M17.7572 1.68161C17.7572 0.759443 16.9978 6.19888e-06 16.0756 6.19888e-06C15.1535 6.19888e-06 14.394 0.759443 14.394 1.68161C14.394 2.60378 15.1535 3.36322 16.0756 3.36322C16.9978 3.36322 17.7572 2.60378 17.7572 1.68161Z" fill="#3B3738"/>
<path d="M11.3019 1.68158C11.3019 1.30186 11.0307 1.03064 10.6509 1.03064C10.2712 1.03064 10 1.30186 10 1.68158C10 2.06129 10.2712 2.33252 10.6509 2.33252C11.0307 2.33252 11.3019 2.06129 11.3019 1.68158Z" fill="#3B3738"/>
<path d="M22.151 1.68158C22.151 1.30186 21.8798 1.03064 21.5001 1.03064C21.1204 1.03064 20.8491 1.30186 20.8491 1.68158C20.8491 2.06129 21.1204 2.33252 21.5001 2.33252C21.8798 2.33252 22.151 2.06129 22.151 1.68158Z" fill="#3B3738"/>
<path d="M259.757 1.68161C259.757 0.759443 258.998 6.19888e-06 258.076 6.19888e-06C257.153 6.19888e-06 256.394 0.759443 256.394 1.68161C256.394 2.60378 257.153 3.36322 258.076 3.36322C258.998 3.36322 259.757 2.60378 259.757 1.68161Z" fill="#3B3738"/>
<path d="M253.302 1.68158C253.302 1.30186 253.031 1.03064 252.651 1.03064C252.271 1.03064 252 1.30186 252 1.68158C252 2.06129 252.271 2.33252 252.651 2.33252C253.031 2.33252 253.302 2.06129 253.302 1.68158Z" fill="#3B3738"/>
<path d="M264.151 1.68158C264.151 1.30186 263.88 1.03064 263.5 1.03064C263.12 1.03064 262.849 1.30186 262.849 1.68158C262.849 2.06129 263.12 2.33252 263.5 2.33252C263.88 2.33252 264.151 2.06129 264.151 1.68158Z" fill="#3B3738"/>
</svg>
