<svg width="274" height="46" viewBox="0 0 274 46" fill="none" xmlns="http://www.w3.org/2000/svg">
<path d="M0 44.4444L34.25 44.2222L68.5 44.1111L137 44L205.5 44.1111L239.75 44.2222L274 44.4444L239.75 44.7778H205.5L137 45L68.5 44.7778H34.25L0 44.4444Z" fill="#3B3738"/>
<path d="M52.9402 23.8137C52.9944 24.1391 53.1571 24.4646 53.3741 24.6816C53.5911 24.8986 53.9166 25.0613 54.242 25.1698C54.893 25.3325 55.5439 25.2783 56.1406 25.0071C56.7373 24.7358 57.1713 24.2476 57.334 23.5967C57.4968 23 57.4425 22.2948 57.2255 21.6981C56.7916 20.5047 55.8152 19.474 54.676 18.9316C53.5369 18.3891 52.1807 18.1721 50.9331 18.3891C49.6854 18.5519 48.492 19.1486 47.5699 20.0165C46.6477 20.8844 46.051 22.0778 45.7798 23.2712C45.5085 24.5188 45.617 25.8207 46.1595 26.9599C46.7019 28.099 47.5156 29.0755 48.5463 29.8349C49.5769 30.5943 50.7703 31.1368 52.018 31.408C52.6147 31.5707 53.2656 31.625 53.9166 31.6792C54.5675 31.6792 55.1642 31.6792 55.8152 31.5707C58.3647 31.2453 60.7515 30.1061 62.9755 28.75C65.1996 27.3939 67.2609 25.7122 69.4307 24.1391C71.6005 22.566 73.9331 21.1014 76.5369 20.2335C77.8387 19.7995 79.1949 19.5283 80.551 19.4198C81.9071 19.3113 83.2633 19.3113 84.6194 19.4198C87.3317 19.691 89.9354 20.3962 92.4307 21.4811C94.926 22.5118 97.2585 23.8137 99.5368 25.3325C101.761 26.8514 103.876 28.4788 105.938 30.1604C110.06 33.5236 114.075 37.0495 118.631 39.7075C120.909 41.0637 123.296 42.2028 125.846 43.0165C128.341 43.8302 130.999 44.2641 133.657 44.2099C130.999 44.3726 128.341 44.0472 125.737 43.2877C123.188 42.5283 120.693 41.4976 118.36 40.1957C113.695 37.592 109.572 34.1203 105.45 30.8113C103.388 29.1839 101.273 27.5566 99.0486 26.092C96.8788 24.6273 94.5463 23.3797 92.1052 22.4033C89.6642 21.4269 87.1147 20.7217 84.5652 20.5047C83.2633 20.3962 81.9614 20.3962 80.7137 20.5047C79.4118 20.6674 78.1642 20.9387 76.9166 21.3184C74.4755 22.1321 72.1972 23.4882 70.0817 25.0071C67.9119 26.5259 65.8505 28.2075 63.518 29.6179C61.2397 31.0283 58.6902 32.1674 55.9779 32.5472C53.2656 32.9811 50.3364 32.2217 48.1123 30.5401C46.9732 29.7264 46.1052 28.5872 45.5085 27.2854C44.9661 25.9835 44.8576 24.5188 45.1831 23.1627C45.5085 21.8066 46.2137 20.5589 47.2444 19.5825C48.2751 18.6061 49.5769 18.0094 50.9873 17.8467C52.3435 17.6839 53.7538 17.9009 55.0015 18.5519C56.2491 19.1486 57.2255 20.2877 57.6595 21.5896C57.8765 22.2405 57.9307 22.9457 57.6595 23.6509C57.4968 24.3019 56.9543 24.8986 56.3034 25.1156C55.6524 25.3868 54.9472 25.3868 54.2963 25.224C53.9708 25.1155 53.6996 24.9528 53.4284 24.6816C53.2114 24.4104 53.0486 24.0849 52.9944 23.7594L52.9402 23.8137Z" fill="#3B3738"/>
<path d="M79.7917 35.6934C80.6596 35.3679 81.636 35.5307 82.3954 36.0731C83.2091 36.5613 83.6973 37.4835 83.9143 38.3514C84.3483 40.1958 83.5346 42.2571 82.07 43.5047C80.6596 44.8066 78.7068 45.4575 76.7539 45.2406C74.8553 45.0236 73.0652 44.1557 71.6549 42.908C70.2445 41.6604 69.1596 40.0873 68.4544 38.4057C67.7492 36.6698 67.4237 34.8255 67.478 32.9811C67.478 29.2925 69.1053 25.658 71.8176 23.3255C70.6242 24.6816 69.702 26.2005 69.1596 27.8821C68.5629 29.5094 68.2917 31.2995 68.3459 33.0354C68.4001 34.7712 68.7256 36.5071 69.4308 38.0802C70.136 39.6533 71.1124 41.0637 72.4143 42.2028C73.6619 43.342 75.2351 44.1014 76.9167 44.3184C78.544 44.5354 80.2799 43.9929 81.5275 42.9623C82.8294 41.9316 83.6431 40.25 83.3718 38.5684C83.2634 37.7547 82.8836 36.941 82.1784 36.3986C81.5275 35.8561 80.6053 35.5849 79.7374 35.8019L79.7917 35.6934Z" fill="#3B3738"/>
<path d="M108.27 32.5472C105.45 30.7028 102.954 28.316 101.11 25.3868C100.188 23.9222 99.4826 22.3491 99.1572 20.559C98.8859 18.8231 99.1029 16.9788 99.9166 15.3514C100.351 14.5377 100.893 13.8325 101.652 13.2358C102.412 12.6934 103.226 12.2594 104.148 12.0967C105.07 11.934 105.992 11.9882 106.86 12.2594C107.294 12.4222 107.728 12.6391 108.108 12.9104C108.487 13.1816 108.813 13.5613 109.084 13.941C109.355 14.3208 109.518 14.7547 109.627 15.1887C109.735 15.6226 109.789 16.1108 109.789 16.5448C109.789 16.9788 109.681 17.467 109.518 17.9009C109.355 18.3349 109.084 18.7146 108.759 19.0401C108.108 19.691 107.185 20.0708 106.263 19.908C105.341 19.7453 104.636 18.8774 104.799 18.0094C104.799 18.4434 104.961 18.8231 105.233 19.0943C105.504 19.3656 105.884 19.5825 106.263 19.5825C107.023 19.6368 107.836 19.2571 108.325 18.6604C109.355 17.467 109.193 15.6226 108.325 14.375C108.108 14.0495 107.836 13.8325 107.565 13.6156C107.24 13.3986 106.914 13.2358 106.589 13.1274C105.884 12.9104 105.07 12.9104 104.365 13.0731C103.605 13.2358 102.9 13.5613 102.303 14.0495C101.707 14.5377 101.218 15.1344 100.893 15.8396C100.188 17.1958 99.9709 18.8774 100.188 20.3962C100.405 21.9693 101.056 23.4882 101.869 24.9528C103.497 27.8278 105.721 30.3774 108.27 32.5472Z" fill="#3B3738"/>
<path d="M73.1738 35.0967C72.6856 33.6863 72.6856 32.0589 73.1195 30.5943C73.5535 29.1297 74.3672 27.7736 75.5063 26.6344C76.6455 25.5495 78.0558 24.7901 79.5205 24.3019C80.9851 23.8137 82.5582 23.6509 84.1313 23.7052C85.7044 23.7594 87.2233 24.0849 88.6879 24.6273C90.1525 25.1155 91.5629 25.8207 92.8648 26.5802C95.5228 28.1533 97.8554 30.1061 100.242 32.0047C101.436 32.9811 102.575 33.9033 103.768 34.7712L105.612 36.0731L107.511 37.3207C110.006 38.9481 112.664 40.3585 115.431 41.4976C120.964 43.7759 127.094 44.5354 133.115 44.1014C130.131 44.5354 127.039 44.5896 124.056 44.3184C121.018 43.9929 118.035 43.342 115.16 42.2571C112.285 41.1722 109.572 39.7618 106.969 38.1344C104.365 36.5071 101.924 34.717 99.5912 32.7641C97.2587 30.8656 94.9261 28.9127 92.3766 27.3939C89.8271 25.875 87.0606 24.6816 84.1313 24.4646C82.6667 24.3561 81.2021 24.4646 79.7917 24.8443C78.3813 25.224 77.0252 25.9292 75.9403 26.9056C74.8554 27.8821 73.9874 29.1297 73.4992 30.5401C73.011 31.9505 72.9025 33.4693 73.2823 34.9339L73.1738 35.0967Z" fill="#3B3738"/>
<path d="M106.752 19.9622C108.19 19.9622 109.355 18.7965 109.355 17.3585C109.355 15.9205 108.19 14.7547 106.752 14.7547C105.314 14.7547 104.148 15.9205 104.148 17.3585C104.148 18.7965 105.314 19.9622 106.752 19.9622Z" fill="#3B3738"/>
<path d="M83.5889 38.4599C83.5889 40.033 82.287 41.3349 80.7139 41.3349C79.1408 41.3349 77.8389 40.033 77.8389 38.4599C77.8389 36.8868 79.1408 35.5849 80.7139 35.5849C82.287 35.5849 83.5889 36.8868 83.5889 38.4599Z" fill="#3B3738"/>
<path d="M74.3671 33.1981C74.2586 32.9269 73.9873 32.8184 73.7161 32.9269C73.4449 33.0354 73.3364 33.3066 73.4449 33.5778C73.5534 33.8491 73.8246 33.9575 74.0958 33.8491C74.3671 33.7406 74.4756 33.4693 74.3671 33.1981Z" fill="#3B3738"/>
<path d="M74.6927 31.3538C74.5843 31.0825 74.313 30.974 74.0418 31.0825C73.7706 31.191 73.6621 31.4622 73.7706 31.7335C73.8791 32.0047 74.1503 32.1132 74.4215 32.0047C74.6927 31.8962 74.8012 31.625 74.6927 31.3538Z" fill="#3B3738"/>
<path d="M75.452 29.6179C75.3435 29.3467 75.0723 29.2382 74.8011 29.3467C74.5299 29.4552 74.4214 29.7264 74.5299 29.9976C74.6383 30.2688 74.9096 30.3773 75.1808 30.2688C75.452 30.1604 75.5605 29.8891 75.452 29.6179Z" fill="#3B3738"/>
<path d="M76.537 28.099C76.4285 27.8278 76.1573 27.7193 75.886 27.8278C75.6148 27.9363 75.5063 28.2075 75.6148 28.4788C75.7233 28.75 75.9945 28.8585 76.2658 28.75C76.537 28.6415 76.6455 28.3703 76.537 28.099Z" fill="#3B3738"/>
<path d="M78.11 26.8514C78.0015 26.5802 77.7303 26.4717 77.459 26.5802C77.1878 26.6887 77.0793 26.9599 77.1878 27.2311C77.2963 27.5023 77.5675 27.6108 77.8388 27.5023C78.11 27.3939 78.2185 27.1226 78.11 26.8514Z" fill="#3B3738"/>
<path d="M79.9 26.0377C79.7915 25.7665 79.5203 25.658 79.2491 25.7665C78.9779 25.875 78.8694 26.1462 78.9779 26.4174C79.0863 26.6887 79.3576 26.7972 79.6288 26.6887C79.9 26.5802 80.0085 26.309 79.9 26.0377Z" fill="#3B3738"/>
<path d="M67.478 23.1085C69.2139 21.3184 71.3294 19.908 73.6077 18.8231C75.886 17.7924 78.3813 17.1415 80.8766 16.9245C83.3719 16.7618 85.9214 17.033 88.3625 17.7382C90.7493 18.4434 93.0818 19.5283 95.0346 21.0471C92.9191 19.691 90.6408 18.6604 88.254 18.0094C85.8672 17.3585 83.3719 17.1415 80.8766 17.3042C78.4356 17.467 75.9945 18.1179 73.7162 19.0401C71.4379 20.0165 69.3224 21.3726 67.478 23V23.1085Z" fill="#3B3738"/>
<path d="M72.7939 17.5212C74.5298 16.599 76.3741 15.8939 78.2727 15.5141C80.1713 15.1344 82.1784 15.0259 84.1312 15.1344C86.084 15.2972 88.0369 15.6769 89.8812 16.3821C91.7255 17.0872 93.4614 18.0094 94.9803 19.2028C93.3529 18.1722 91.5628 17.3042 89.7727 16.7075C87.9284 16.1108 86.0298 15.6769 84.1312 15.5684C82.2326 15.4056 80.2798 15.5684 78.3812 15.8396C76.4826 16.1651 74.6383 16.7618 72.8482 17.5212H72.7939Z" fill="#3B3738"/>
<path d="M76.5913 14.2123C78.1102 13.6698 79.7375 13.3986 81.3649 13.2901C82.9923 13.1816 84.6196 13.2901 86.1927 13.5613C87.7658 13.8325 89.339 14.3208 90.8578 14.9175C92.3224 15.5684 93.7871 16.3821 95.0347 17.3585C93.6786 16.4906 92.214 15.7854 90.7493 15.1887C89.2305 14.592 87.7116 14.158 86.1385 13.941C84.5654 13.6698 82.9923 13.5613 81.3649 13.6156C79.7918 13.6156 78.1644 13.8868 76.5913 14.2123Z" fill="#3B3738"/>
<path d="M110.115 41.9858C108.921 41.5519 107.728 41.0094 106.589 40.467C105.45 39.8703 104.365 39.2193 103.28 38.5684C102.195 37.8632 101.164 37.158 100.134 36.3443C99.1571 35.5306 98.1807 34.717 97.2585 33.7948C98.2892 34.5542 99.2656 35.3679 100.296 36.0731C101.327 36.8325 102.358 37.5377 103.443 38.1887C104.527 38.8939 105.612 39.5448 106.697 40.1415C107.782 40.7924 108.921 41.3891 110.06 41.9316L110.115 41.9858Z" fill="#3B3738"/>
<path d="M105.124 41.6604C104.256 41.2807 103.442 40.8467 102.575 40.3585C101.761 39.8703 100.947 39.3821 100.188 38.8396C99.4283 38.2972 98.6689 37.7005 97.9637 37.1038C97.2585 36.5071 96.5533 35.8561 95.9023 35.1509L98.1806 36.8325C98.9401 37.375 99.6995 37.9174 100.459 38.4599C101.218 39.0023 102.032 39.5448 102.791 40.033L105.178 41.6061L105.124 41.6604Z" fill="#3B3738"/>
<path d="M101.327 41.8231C100.676 41.4976 100.025 41.1722 99.4286 40.7924C98.8319 40.4127 98.2352 40.033 97.6385 39.599C97.0418 39.1651 96.4994 38.7311 95.9569 38.2429C95.4145 37.7547 94.872 37.2665 94.3838 36.724C94.9805 37.158 95.5772 37.592 96.1196 37.9717L97.8555 39.2736L99.5913 40.5755C100.188 41.0094 100.73 41.4434 101.327 41.8773V41.8231Z" fill="#3B3738"/>
<path d="M221.318 23.8137C221.318 24.1392 221.155 24.4646 220.884 24.7359C220.667 24.9528 220.341 25.1698 220.016 25.2783C219.365 25.4953 218.66 25.441 218.009 25.1698C217.358 24.9528 216.869 24.3561 216.652 23.7052C216.435 23.0543 216.49 22.3491 216.652 21.6439C217.086 20.342 218.063 19.2571 219.31 18.6061C220.558 17.9552 221.968 17.7382 223.325 17.901C224.681 18.0637 226.037 18.6604 227.068 19.6368C228.098 20.6132 228.803 21.8609 229.129 23.217C229.454 24.5731 229.346 26.0377 228.803 27.3396C228.261 28.6415 227.339 29.7807 226.2 30.5943C223.976 32.2759 221.101 32.9811 218.334 32.6014C215.568 32.2759 213.072 31.0826 210.794 29.6722C208.461 28.2618 206.4 26.5802 204.23 25.0613C202.06 23.5425 199.836 22.1321 197.395 21.3726C196.148 20.9929 194.9 20.7217 193.598 20.559C192.296 20.4505 190.994 20.4505 189.747 20.559C187.143 20.8302 184.593 21.4811 182.207 22.4576C179.766 23.434 177.487 24.7359 175.263 26.1462C173.093 27.6109 170.978 29.184 168.862 30.8656C164.685 34.1203 160.617 37.592 155.952 40.25C153.619 41.5519 151.124 42.6368 148.575 43.342C146.025 44.1014 143.313 44.4269 140.655 44.2642C143.313 44.3184 145.971 43.8844 148.466 43.0708C150.961 42.2571 153.402 41.1179 155.681 39.7618C160.237 37.0495 164.251 33.5778 168.374 30.2146C170.435 28.533 172.551 26.8514 174.775 25.3868C176.999 23.9222 179.332 22.566 181.881 21.5354C184.376 20.5047 186.98 19.7995 189.693 19.4741C191.049 19.3113 192.405 19.3656 193.761 19.4741C195.117 19.6368 196.473 19.908 197.775 20.2877C200.379 21.1557 202.711 22.6203 204.881 24.1934C207.051 25.7665 209.112 27.3939 211.336 28.8042C213.56 30.1604 215.947 31.2995 218.497 31.625C219.148 31.7335 219.799 31.7335 220.395 31.7335C221.046 31.7335 221.643 31.625 222.294 31.4623C223.542 31.191 224.735 30.6486 225.766 29.8892C226.796 29.1297 227.61 28.1533 228.152 27.0142C228.641 25.875 228.803 24.5731 228.532 23.3255C228.261 22.0778 227.61 20.9387 226.742 20.0708C225.82 19.2028 224.626 18.6061 223.379 18.4434C222.131 18.2807 220.775 18.4434 219.636 18.9859C218.497 19.5283 217.52 20.5047 217.086 21.7524C216.869 22.3491 216.815 23 216.978 23.6509C217.141 24.3019 217.575 24.7901 218.171 25.0613C218.768 25.3326 219.419 25.3868 220.07 25.2241C220.395 25.1156 220.667 25.0071 220.938 24.7359C221.155 24.5189 221.318 24.1934 221.372 23.8679L221.318 23.8137Z" fill="#3B3738"/>
<path d="M194.466 35.6934C193.598 35.4764 192.676 35.7476 192.025 36.2901C191.374 36.8325 190.994 37.6462 190.832 38.4599C190.56 40.1415 191.374 41.8231 192.676 42.8538C193.978 43.8844 195.659 44.4269 197.287 44.2099C198.914 43.9929 200.487 43.2335 201.789 42.0943C203.091 41.0094 204.067 39.5448 204.773 37.9717C205.478 36.3986 205.803 34.6627 205.858 32.9269C205.858 31.191 205.641 29.4552 205.044 27.7736C204.501 26.092 203.579 24.5731 202.386 23.217C205.098 25.6038 206.671 29.2382 206.725 32.8726C206.725 34.717 206.454 36.5613 205.749 38.2972C205.044 40.033 203.959 41.6061 202.549 42.7995C201.138 44.0472 199.402 44.9151 197.45 45.1321C195.551 45.2948 193.544 44.6439 192.134 43.3962C190.669 42.1486 189.855 40.1415 190.289 38.2429C190.506 37.3208 191.049 36.4528 191.808 35.9646C192.567 35.4222 193.598 35.2594 194.412 35.5849L194.466 35.6934Z" fill="#3B3738"/>
<path d="M165.987 32.5472C168.537 30.3774 170.761 27.8278 172.388 24.9528C173.202 23.5425 173.853 22.0236 174.07 20.3962C174.287 18.8231 174.07 17.1958 173.365 15.8396C173.039 15.1344 172.551 14.5377 171.954 14.0495C171.358 13.5613 170.652 13.2358 169.893 13.0731C169.134 12.9104 168.374 12.9104 167.669 13.1274C167.289 13.2358 166.964 13.3986 166.693 13.6156C166.421 13.8325 166.15 14.1038 165.933 14.375C165.065 15.5684 164.902 17.467 165.933 18.6604C166.421 19.2571 167.181 19.6368 167.994 19.5825C168.374 19.5825 168.754 19.3656 169.025 19.0943C169.296 18.8231 169.513 18.3891 169.459 18.0094C169.622 18.8774 168.917 19.7453 167.994 19.908C167.072 20.0708 166.15 19.691 165.499 19.0401C165.174 18.7146 164.902 18.3349 164.74 17.9009C164.577 17.467 164.469 17.033 164.469 16.5448C164.469 16.1108 164.469 15.6226 164.631 15.1887C164.74 14.7547 164.957 14.3208 165.174 13.941C165.445 13.5613 165.77 13.1816 166.15 12.9104C166.53 12.6391 166.964 12.4222 167.398 12.2594C168.266 11.9882 169.242 11.934 170.11 12.0967C171.032 12.2594 171.846 12.6391 172.605 13.2358C173.31 13.8325 173.907 14.5377 174.341 15.3514C175.155 16.9788 175.372 18.8231 175.101 20.559C174.775 22.2948 174.07 23.9222 173.148 25.3868C171.303 28.2618 168.808 30.7028 165.987 32.5472Z" fill="#3B3738"/>
<path d="M201.084 35.0967C201.464 33.6321 201.355 32.059 200.867 30.7028C200.379 29.2924 199.511 28.0448 198.426 27.0684C197.341 26.092 195.985 25.441 194.575 25.0071C193.164 24.6274 191.7 24.4646 190.235 24.6274C187.306 24.8443 184.485 25.9835 181.99 27.5566C179.44 29.0755 177.108 31.0283 174.775 32.9269C172.442 34.8255 169.947 36.6698 167.398 38.2972C164.794 39.9245 162.082 41.3349 159.207 42.4198C156.332 43.5047 153.348 44.2099 150.31 44.4811C147.273 44.7524 144.235 44.6981 141.251 44.2641C147.273 44.6981 153.402 43.9387 158.935 41.6604C161.702 40.5212 164.36 39.1108 166.855 37.4835L168.754 36.2359L170.598 34.934C171.792 34.066 172.985 33.0896 174.124 32.1675C176.457 30.2689 178.843 28.316 181.501 26.7429C182.803 25.9835 184.214 25.2783 185.678 24.7901C187.143 24.2476 188.662 23.9222 190.235 23.8679C191.808 23.8137 193.381 23.9764 194.846 24.4646C196.31 24.9528 197.721 25.7123 198.86 26.7972C199.945 27.8821 200.813 29.2382 201.247 30.7571C201.681 32.2217 201.681 33.8491 201.193 35.2594L201.084 35.0967Z" fill="#3B3738"/>
<path d="M167.506 19.9622C168.944 19.9622 170.11 18.7965 170.11 17.3585C170.11 15.9205 168.944 14.7547 167.506 14.7547C166.068 14.7547 164.902 15.9205 164.902 17.3585C164.902 18.7965 166.068 19.9622 167.506 19.9622Z" fill="#3B3738"/>
<path d="M125.629 20.0165C125.629 21.2099 126.605 22.1863 127.799 22.1863C128.992 22.1863 129.969 21.2099 129.969 20.0165C129.969 18.8231 128.992 17.8467 127.799 17.8467C126.605 17.8467 125.629 18.8231 125.629 20.0165Z" fill="#3B3738"/>
<path d="M128.178 34.1203C128.178 35.3137 129.155 36.2901 130.348 36.2901C131.542 36.2901 132.518 35.3137 132.518 34.1203C132.518 32.9269 131.542 31.9505 130.348 31.9505C129.155 31.9505 128.178 32.9269 128.178 34.1203Z" fill="#3B3738"/>
<path d="M141.577 34.1203C141.577 35.3137 142.553 36.2901 143.747 36.2901C144.94 36.2901 145.917 35.3137 145.917 34.1203C145.917 32.9269 144.94 31.9505 143.747 31.9505C142.553 31.9505 141.577 32.9269 141.577 34.1203Z" fill="#3B3738"/>
<path d="M144.072 20.0165C144.072 21.2099 145.049 22.1863 146.242 22.1863C147.435 22.1863 148.412 21.2099 148.412 20.0165C148.412 18.8231 147.435 17.8467 146.242 17.8467C145.049 17.8467 144.072 18.8231 144.072 20.0165Z" fill="#3B3738"/>
<path d="M190.669 38.4599C190.669 40.033 191.971 41.3349 193.544 41.3349C195.117 41.3349 196.419 40.033 196.419 38.4599C196.419 36.8868 195.117 35.5849 193.544 35.5849C191.971 35.5849 190.669 36.8868 190.669 38.4599Z" fill="#3B3738"/>
<path d="M199.891 33.1981C199.999 32.9269 200.27 32.8184 200.542 32.9269C200.813 33.0354 200.921 33.3066 200.813 33.5778C200.704 33.8491 200.433 33.9575 200.162 33.8491C199.891 33.7406 199.782 33.4693 199.891 33.1981Z" fill="#3B3738"/>
<path d="M199.565 31.3538C199.674 31.0825 199.945 30.974 200.216 31.0825C200.487 31.191 200.596 31.4622 200.487 31.7335C200.379 32.0047 200.108 32.1132 199.836 32.0047C199.565 31.8962 199.457 31.625 199.565 31.3538Z" fill="#3B3738"/>
<path d="M198.806 29.6179C198.914 29.3467 199.185 29.2382 199.457 29.3467C199.728 29.4552 199.836 29.7264 199.728 29.9976C199.619 30.2688 199.348 30.3773 199.077 30.2688C198.806 30.1604 198.697 29.8891 198.806 29.6179Z" fill="#3B3738"/>
<path d="M197.721 28.099C197.829 27.8278 198.1 27.7193 198.372 27.8278C198.643 27.9363 198.751 28.2075 198.643 28.4788C198.534 28.75 198.263 28.8585 197.992 28.75C197.721 28.6415 197.612 28.3703 197.721 28.099Z" fill="#3B3738"/>
<path d="M196.148 26.8514C196.256 26.5802 196.527 26.4717 196.799 26.5802C197.07 26.6887 197.178 26.9599 197.07 27.2311C196.961 27.5023 196.69 27.6108 196.419 27.5023C196.148 27.3939 196.039 27.1226 196.148 26.8514Z" fill="#3B3738"/>
<path d="M194.358 26.0377C194.466 25.7665 194.737 25.658 195.009 25.7665C195.28 25.875 195.388 26.1462 195.28 26.4174C195.171 26.6887 194.9 26.7972 194.629 26.6887C194.358 26.5802 194.249 26.309 194.358 26.0377Z" fill="#3B3738"/>
<path d="M206.78 23.1085C204.936 21.4269 202.82 20.125 200.542 19.1486C198.263 18.1722 195.822 17.5755 193.381 17.4127C190.94 17.1958 188.445 17.467 186.004 18.1179C183.617 18.7689 181.285 19.7453 179.223 21.1557C181.23 19.6368 183.509 18.5519 185.896 17.8467C188.282 17.1415 190.832 16.8703 193.381 17.033C195.877 17.25 198.372 17.8467 200.65 18.9316C202.929 19.9623 205.044 21.4269 206.78 23.217V23.1085Z" fill="#3B3738"/>
<path d="M201.464 17.5212C199.674 16.7618 197.829 16.1651 195.931 15.8396C194.032 15.5141 192.079 15.4056 190.181 15.5684C188.228 15.6769 186.329 16.1108 184.539 16.7075C182.695 17.3042 180.959 18.1722 179.332 19.2028C180.905 18.0094 182.641 17.0872 184.431 16.3821C186.275 15.6769 188.228 15.2972 190.181 15.1344C192.134 15.0259 194.141 15.1344 196.039 15.5141C197.938 15.8939 199.837 16.599 201.518 17.5212H201.464Z" fill="#3B3738"/>
<path d="M197.667 14.2123C196.094 13.8325 194.521 13.6156 192.893 13.6156C191.32 13.6156 189.693 13.6156 188.12 13.941C186.546 14.2123 184.973 14.6462 183.509 15.1887C181.99 15.7854 180.58 16.4906 179.223 17.3585C180.471 16.3821 181.881 15.5684 183.4 14.9175C184.865 14.2665 186.438 13.8325 188.065 13.5613C189.693 13.2901 191.32 13.1816 192.893 13.2901C194.521 13.3986 196.094 13.7241 197.667 14.2123Z" fill="#3B3738"/>
<path d="M164.143 41.9859C165.282 41.3892 166.421 40.7925 167.506 40.1958C168.591 39.5448 169.73 38.9481 170.761 38.2429C171.846 37.592 172.877 36.8325 173.907 36.1274C174.938 35.3679 175.969 34.6085 176.945 33.8491C176.023 34.7712 175.101 35.5849 174.07 36.3986C173.094 37.2123 172.009 37.9175 170.924 38.6226C169.839 39.2736 168.754 39.9245 167.615 40.5212C166.476 41.1179 165.282 41.6061 164.089 42.0401L164.143 41.9859Z" fill="#3B3738"/>
<path d="M169.134 41.6604L171.52 40.0873C172.28 39.5448 173.093 39.0566 173.853 38.5142C174.612 37.9717 175.372 37.4292 176.131 36.8868L178.409 35.2052C177.759 35.9104 177.053 36.5071 176.348 37.158C175.643 37.7547 174.884 38.3514 174.124 38.8939C173.365 39.4363 172.551 39.9245 171.737 40.4127C170.924 40.9009 170.056 41.3349 169.188 41.7146L169.134 41.6604Z" fill="#3B3738"/>
<path d="M172.931 41.8231C173.527 41.3891 174.07 40.9552 174.667 40.5212L176.402 39.2193L178.138 37.9174C178.735 37.4835 179.277 37.0495 179.874 36.6698C179.386 37.2123 178.843 37.7005 178.301 38.1887C177.758 38.6769 177.216 39.1108 176.619 39.5448C176.023 39.9788 175.426 40.3585 174.829 40.7382C174.233 41.1179 173.582 41.4976 172.931 41.7689V41.8231Z" fill="#3B3738"/>
<path d="M145.645 21.2099C145.917 21.6439 146.405 21.8066 146.893 21.7524C147.381 21.7524 147.815 21.4811 148.032 21.0472C148.52 20.2335 148.249 19.1486 147.598 18.5519C146.296 17.25 143.801 17.684 142.987 19.2571C142.553 20.0165 142.445 20.9929 142.662 21.8608C142.825 22.7288 143.367 23.4882 144.072 24.0307C144.777 24.5731 145.645 24.8986 146.568 24.9528C147.435 25.0071 148.358 24.8443 149.117 24.4104C150.69 23.5967 151.884 22.0236 152.209 20.2877C152.535 18.5519 151.938 16.6533 150.799 15.2972C149.66 13.941 147.924 13.1274 146.134 13.0189C144.343 12.9104 142.553 13.5071 141.143 14.592C139.733 15.6769 138.648 17.25 138.214 19.0401C137.726 20.7759 137.726 22.6745 137.888 24.5731C137.997 26.4717 138.214 28.4245 138.105 30.3773C137.997 32.3302 137.4 34.283 136.478 36.0189C135.99 36.8868 135.447 37.7005 134.688 38.4057C133.928 39.1108 132.952 39.599 131.921 39.7075C130.891 39.816 129.86 39.599 128.938 39.1108C128.07 38.5684 127.365 37.7547 126.985 36.7783C126.605 35.8019 126.605 34.7712 126.985 33.7948C127.31 32.8184 128.124 32.059 129.101 31.7335C130.023 31.408 131.162 31.5707 131.867 32.3302C132.572 33.0354 132.843 34.1745 132.41 35.0424C132.789 34.1203 132.41 33.0896 131.759 32.4387C131.108 31.7877 130.023 31.6792 129.209 32.0047C128.341 32.3302 127.69 33.0354 127.419 33.9033C127.148 34.7712 127.202 35.7476 127.527 36.5613C127.853 37.375 128.504 38.0802 129.263 38.5141C130.023 38.9481 130.945 39.1108 131.813 39.0023C132.681 38.8939 133.494 38.4057 134.145 37.809C134.796 37.2123 135.285 36.3986 135.718 35.5849C136.586 33.9575 137.075 32.1132 137.183 30.2689C137.292 28.4245 137.075 26.5259 136.912 24.5731C136.749 22.6745 136.695 20.6674 137.237 18.7146C137.726 16.7618 138.919 14.9717 140.492 13.724C142.065 12.4764 144.181 11.8255 146.242 11.934C148.249 12.0424 150.31 12.9646 151.612 14.592C152.914 16.1651 153.565 18.2807 153.185 20.342C152.806 22.4033 151.395 24.1391 149.551 25.0071C147.707 25.9292 145.32 25.7123 143.747 24.4104C142.065 23.1627 141.523 20.6132 142.662 18.8773C143.747 17.033 146.568 16.7075 147.924 18.2264C148.249 18.6061 148.466 19.0943 148.575 19.5825C148.629 20.0707 148.575 20.6132 148.303 21.0472C148.032 21.4811 147.544 21.6981 147.056 21.7524C146.568 21.7524 146.025 21.5896 145.808 21.1557L145.645 21.2099Z" fill="#3B3738"/>
<path d="M128.504 21.2099C128.287 21.6439 127.744 21.8608 127.256 21.8066C126.768 21.8066 126.28 21.5354 126.009 21.1014C125.737 20.6674 125.629 20.125 125.737 19.6368C125.792 19.1486 126.009 18.6604 126.388 18.2807C127.799 16.7618 130.619 17.0873 131.65 18.9316C132.735 20.7217 132.247 23.217 130.565 24.4646C128.938 25.7665 126.605 25.9835 124.761 25.0613C122.917 24.1934 121.452 22.4033 121.126 20.3962C120.747 18.3349 121.398 16.2193 122.7 14.6462C124.001 13.0189 126.009 12.0967 128.07 11.9882C130.131 11.8255 132.193 12.4764 133.82 13.7783C135.393 15.0259 136.586 16.816 137.075 18.7689C137.617 20.7217 137.563 22.7288 137.4 24.6273C137.237 26.5259 137.02 28.4245 137.129 30.3231C137.237 32.1674 137.726 34.0118 138.593 35.6391C139.027 36.4528 139.516 37.2123 140.167 37.8632C140.818 38.4599 141.631 38.9481 142.499 39.0566C143.367 39.1651 144.289 39.0566 145.049 38.5684C145.808 38.1344 146.459 37.4292 146.784 36.6156C147.164 35.8019 147.218 34.8255 146.893 33.9575C146.622 33.0896 145.971 32.3844 145.103 32.0589C144.235 31.7335 143.204 31.842 142.553 32.4929C141.902 33.0896 141.523 34.1745 141.902 35.0967C141.468 34.2288 141.74 33.0896 142.445 32.3844C143.15 31.625 144.289 31.4622 145.211 31.7877C146.188 32.0589 146.947 32.8726 147.327 33.849C147.707 34.7712 147.652 35.8561 147.327 36.8325C146.947 37.8089 146.296 38.6226 145.374 39.1651C144.506 39.7075 143.421 39.9245 142.391 39.7618C141.36 39.6533 140.384 39.1108 139.624 38.4599C138.865 37.7547 138.268 36.941 137.834 36.0731C136.858 34.3373 136.315 32.3844 136.207 30.4316C136.098 28.4788 136.315 26.5259 136.424 24.6273C136.532 22.7288 136.586 20.8302 136.098 19.0943C135.61 17.3585 134.579 15.7854 133.169 14.6462C131.759 13.5071 129.968 12.9646 128.178 13.0731C126.388 13.1816 124.652 13.941 123.513 15.3514C122.374 16.7075 121.777 18.5519 122.103 20.342C122.374 22.0778 123.622 23.6509 125.195 24.4646C126.009 24.8443 126.876 25.0613 127.744 25.0071C128.612 24.9528 129.48 24.6273 130.24 24.0849C130.945 23.5424 131.487 22.783 131.65 21.9151C131.867 21.0472 131.759 20.125 131.325 19.3113C130.511 17.7382 128.016 17.3042 126.714 18.6061C126.063 19.2028 125.792 20.2877 126.28 21.1014C126.497 21.4811 126.931 21.7523 127.419 21.8066C127.853 21.8066 128.395 21.6981 128.667 21.2641L128.504 21.2099Z" fill="#3B3738"/>
<path d="M140.438 4.44811C139.841 3.03773 138.105 1.03066 137.02 0C135.935 1.08491 134.2 3.09198 133.603 4.44811C133.006 5.85849 132.952 7.64858 133.983 8.78773C134.471 9.33019 135.122 9.65566 135.664 10.0896C136.261 10.5236 136.912 11.066 137.02 11.7712C137.129 11.066 137.78 10.5236 138.376 10.0896C138.973 9.65566 139.624 9.33019 140.058 8.78773C141.089 7.64858 141.089 5.85849 140.438 4.44811Z" fill="#3B3738"/>
</svg>
