<svg width="54" height="50" viewBox="0 0 54 50" fill="none" xmlns="http://www.w3.org/2000/svg">
<path d="M48.7779 5.49467C42.6528 -0.519043 33.0754 -0.741772 26.7276 4.82648C20.3798 -0.741772 10.8024 -0.407677 4.67733 5.60604C-1.55911 11.8425 -1.55911 22.0881 4.67733 28.4359L25.9481 49.5952C26.3935 50.0407 27.0617 50.0407 27.5072 49.5952L48.6665 28.4359C55.0143 21.9767 55.0143 11.8425 48.7779 5.49467ZM47.1074 26.7654L26.7276 47.1452L6.34781 26.7654C0.89092 21.3085 0.89092 12.5107 6.34781 7.16515C11.8047 1.70826 20.6025 1.70826 25.9481 7.16515C26.3935 7.61061 27.0617 7.61061 27.5072 7.16515C32.9641 1.70826 41.7619 1.70826 47.1074 7.16515C52.5643 12.5107 52.5643 21.3085 47.1074 26.7654Z" fill="#FF0101"/>
</svg>
