<svg width="18" height="18" viewBox="0 0 18 18" fill="none" xmlns="http://www.w3.org/2000/svg">
<path d="M13.1667 0.666504H4.83341C2.53341 0.666504 0.666748 2.53317 0.666748 4.83317V13.1665C0.666748 15.4665 2.53341 17.3332 4.83341 17.3332H13.1667C15.4667 17.3332 17.3334 15.4665 17.3334 13.1665V4.83317C17.3334 2.53317 15.4667 0.666504 13.1667 0.666504ZM9.00008 13.1665C6.70008 13.1665 4.83341 11.2998 4.83341 8.99984C4.83341 6.69984 6.70008 4.83317 9.00008 4.83317C11.3001 4.83317 13.1667 6.69984 13.1667 8.99984C13.1667 11.2998 11.3001 13.1665 9.00008 13.1665ZM13.4584 5.34984C13.0001 5.34984 12.6251 4.97484 12.6251 4.5165C12.6251 4.05817 13.0001 3.68317 13.4584 3.68317C13.9167 3.68317 14.2917 4.05817 14.2917 4.5165C14.2917 4.97484 13.9167 5.34984 13.4584 5.34984Z" fill="#4A4A4A"/>
<path d="M9 11.5C10.3807 11.5 11.5 10.3807 11.5 9C11.5 7.61929 10.3807 6.5 9 6.5C7.61929 6.5 6.5 7.61929 6.5 9C6.5 10.3807 7.61929 11.5 9 11.5Z" fill="#4A4A4A"/>
</svg>
