<svg width="21" height="18" viewBox="0 0 21 18" fill="none" xmlns="http://www.w3.org/2000/svg">
<path d="M19.4139 1.56011C18.5158 0.616212 17.3505 0.0638475 16.1326 0.00482051C15.0182 -0.049171 13.8543 0.375907 12.7671 1.23423C12.0099 1.83197 11.3461 2.54046 10.8473 3.28323C10.7669 3.40304 10.6409 3.47206 10.5014 3.47253C10.3609 3.47253 10.2354 3.40483 10.1543 3.28558L10.1527 3.28314C9.65387 2.54046 8.99004 1.83197 8.23294 1.23426C7.1457 0.375879 5.9818 -0.049199 4.86738 0.00482051C3.6495 0.0638475 2.48417 0.616212 1.58611 1.56011C0.708897 2.48214 0.15906 3.69236 0.0379299 4.96782C-0.398788 9.56616 3.01974 13.2456 5.96442 15.5226C6.65064 16.0533 7.37928 16.5415 8.12893 16.9731C8.76678 17.3476 9.29104 17.6205 9.82877 17.8579C10.0428 17.9524 10.2684 18.0002 10.4995 18.0002C10.5077 18.0002 10.5159 18.0002 10.5241 18.0001C10.7473 17.9968 10.9658 17.9486 11.1734 17.8569C11.7104 17.6197 12.234 17.3472 12.8699 16.9738C13.6207 16.5415 14.3493 16.0532 15.0356 15.5226C17.9802 13.2457 21.3988 9.56619 20.962 4.96782C20.8409 3.69236 20.2911 2.48214 19.4139 1.56011ZM8.51627 15.3155C8.48723 15.3712 8.43254 15.4028 8.37606 15.4028C8.35011 15.4028 8.32384 15.3961 8.29948 15.3821C7.73559 15.0574 7.18834 14.6907 6.67297 14.2922C5.47793 13.3682 4.50189 12.3903 3.77194 11.3857C3.71841 11.312 3.73183 11.2067 3.80194 11.1505C3.87199 11.0942 3.97223 11.1083 4.02578 11.182C4.73731 12.1612 5.69163 13.1166 6.86224 14.0218C7.36624 14.4115 7.90144 14.7701 8.45295 15.0877C8.53027 15.1322 8.55862 15.2342 8.51627 15.3155Z" fill="#FF0101"/>
</svg>
